<?xml version="1.0" encoding="utf-8"?>
<!-- Generator: Adobe Illustrator 21.1.0, SVG Export Plug-In . SVG Version: 6.00 Build 0)  -->
<svg version="1.1"
	 id="svg602" sodipodi:docname="D:\Dokumenty\Wikipedie\images\svg\Astro\aries.svg" sodipodi:version="0.34" xmlns:odm="http://product.corel.com/CGS/11/cddns/" xmlns:sodipodi="http://sodipodi.sourceforge.net/DTD/sodipodi-0.dtd"
	 xmlns="http://www.w3.org/2000/svg" xmlns:xlink="http://www.w3.org/1999/xlink" x="0px" y="0px" viewBox="0 0 134.6 127.8"
	 style="enable-background:new 0 0 134.6 127.8;" xml:space="preserve">
<sodipodi:namedview  id="base"></sodipodi:namedview>
<g id="Layer_1" transform="matrix(6.99342,0,0,6.984468,-23594.91,-32470.79)">
	<path id="path672" d="M3373.9,4663.6l5.8-3.8l1.3,3l4.5-3l1.3,3l4.5-3l1.9,4.4l-1.2,0.5l-1.2-3l-4.5,3l-1.3-3l-4.5,3l-1.3-3l-4.5,3
		L3373.9,4663.6z M3373.9,4655.6l5.8-3.8l1.3,3l4.5-3l1.3,3l4.5-3l1.9,4.4l-1.2,0.5l-1.2-3l-4.5,3l-1.3-3l-4.5,3l-1.3-3l-4.5,3
		L3373.9,4655.6z"/>
</g>
</svg>
