<?xml version="1.0" encoding="utf-8"?>
<!-- Generator: Adobe Illustrator 21.1.0, SVG Export Plug-In . SVG Version: 6.00 Build 0)  -->
<svg version="1.1"
	 id="svg602" sodipodi:docname="D:\Dokumenty\Wikipedie\images\svg\Astro\aries.svg" sodipodi:version="0.34" xmlns:odm="http://product.corel.com/CGS/11/cddns/" xmlns:sodipodi="http://sodipodi.sourceforge.net/DTD/sodipodi-0.dtd"
	 xmlns="http://www.w3.org/2000/svg" xmlns:xlink="http://www.w3.org/1999/xlink" x="0px" y="0px" viewBox="0 0 134.6 127.8"
	 style="enable-background:new 0 0 134.6 127.8;" xml:space="preserve">
<sodipodi:namedview  id="base"></sodipodi:namedview>
<path id="path606" d="M62.7,121.4v-6.1c0-11.8-1.2-24.9-3.5-39.3c-2.4-14.4-5.2-26.2-8.6-35.3c-7.4-19.8-15.3-29.7-23.9-29.7
	c-3.8,0-6.9,1.6-9.3,5c-2.4,3.3-3.6,7.7-3.6,13c0,7.1,2.2,14.3,6.8,21.9h-9.3C6.9,42.7,4.7,35.1,4.7,28c0-7.3,2.1-13.4,6.3-18.2
	s9.5-7.3,15.8-7.3c10.3,0,18.9,6.9,26.1,20.8c7.2,13.8,11.7,32.3,13.6,55.7h1.6c1.6-22.8,6-41.3,13.3-55.3
	C88.7,9.5,97.5,2.5,107.8,2.5c6.3,0,11.6,2.4,15.8,7.2c4.2,4.8,6.3,10.8,6.3,18.1c0,7.1-2.2,14.8-6.7,23h-9.3
	c4.5-8.1,6.8-15.5,6.8-22.4c0-5.5-1.2-9.9-3.5-13.2c-2.4-3.3-5.5-5-9.4-5c-8.3,0-16,9.3-23.1,27.7c-3.7,9.4-6.7,21.6-9.2,36.6
	c-2.5,14.9-3.7,28.7-3.7,41.2v5.8H62.7z"/>
</svg>
