<?xml version="1.0" encoding="utf-8"?>
<!-- Generator: Adobe Illustrator 21.1.0, SVG Export Plug-In . SVG Version: 6.00 Build 0)  -->
<svg version="1.1"
	 id="svg602" sodipodi:docname="D:\Dokumenty\Wikipedie\images\svg\Astro\aries.svg" sodipodi:version="0.34" xmlns:odm="http://product.corel.com/CGS/11/cddns/" xmlns:sodipodi="http://sodipodi.sourceforge.net/DTD/sodipodi-0.dtd"
	 xmlns="http://www.w3.org/2000/svg" xmlns:xlink="http://www.w3.org/1999/xlink" x="0px" y="0px" viewBox="0 0 134.6 127.8"
	 style="enable-background:new 0 0 134.6 127.8;" xml:space="preserve">
<sodipodi:namedview  id="base"></sodipodi:namedview>
<g id="Layer_1" transform="matrix(5.828176,0,0,5.82271,-19181.62,-26091.57)">
	<path id="path630" d="M3291,4498.8v-2c3.8,1.7,7.5,2.6,11.1,2.6c2.3,0,4.2-0.3,5.7-0.9c-0.9-0.5-1.6-1.1-2.1-1.8
		c-0.5-0.7-0.7-1.6-0.7-2.5c0-1.3,0.5-2.4,1.4-3.3c0.9-0.9,2-1.4,3.3-1.4s2.4,0.5,3.3,1.4c0.9,0.9,1.4,2,1.4,3.3
		c0,2-1.2,3.7-3.7,5.1c-2.5,1.3-5.6,2-9.3,2C3298,4501.2,3294.6,4500.4,3291,4498.8z M3306.2,4494.2c0,0.9,0.3,1.7,1,2.4
		c0.7,0.7,1.5,1,2.4,1c0.9,0,1.7-0.3,2.4-1c0.7-0.7,1-1.5,1-2.4c0-1-0.3-1.8-1-2.5s-1.5-1-2.4-1c-1,0-1.8,0.3-2.4,1
		C3306.6,4492.4,3306.2,4493.2,3306.2,4494.2z M3314.3,4485.4v2c-3.8-1.7-7.5-2.6-11.1-2.6c-2.3,0-4.2,0.3-5.7,0.9
		c0.9,0.5,1.6,1.1,2.1,1.8c0.5,0.7,0.7,1.6,0.7,2.5c0,1.3-0.5,2.4-1.4,3.3c-0.9,0.9-2,1.4-3.3,1.4c-1.3,0-2.4-0.4-3.3-1.4
		c-0.9-0.9-1.4-2-1.4-3.3c0-2,1.2-3.7,3.7-5.1c2.5-1.3,5.6-2,9.3-2C3307.3,4483,3310.7,4483.8,3314.3,4485.4z M3299.1,4490
		c0-0.9-0.3-1.7-1-2.4c-0.7-0.7-1.5-1-2.4-1c-0.9,0-1.7,0.3-2.4,1c-0.7,0.7-1,1.5-1,2.4c0,1,0.3,1.8,1,2.5c0.7,0.7,1.5,1,2.4,1
		s1.8-0.3,2.4-1C3298.7,4491.8,3299.1,4491,3299.1,4490z"/>
</g>
</svg>
