<?xml version="1.0" encoding="utf-8"?>
<!-- Generator: Adobe Illustrator 21.1.0, SVG Export Plug-In . SVG Version: 6.00 Build 0)  -->
<svg version="1.1"
	 id="svg602" sodipodi:docname="D:\Dokumenty\Wikipedie\images\svg\Astro\aries.svg" sodipodi:version="0.34" xmlns:odm="http://product.corel.com/CGS/11/cddns/" xmlns:sodipodi="http://sodipodi.sourceforge.net/DTD/sodipodi-0.dtd"
	 xmlns="http://www.w3.org/2000/svg" xmlns:xlink="http://www.w3.org/1999/xlink" x="0px" y="0px" viewBox="0 0 134.6 127.8"
	 style="enable-background:new 0 0 134.6 127.8;" xml:space="preserve">
<sodipodi:namedview  id="base"></sodipodi:namedview>
<g transform="matrix(4.75426,0,0,4.752845,-14923.45,-21059.85)">
	<path d="M3144.3,4447v-0.8c0-1.4-0.3-3.4-0.7-6c-0.5-2.6-1-4.3-1.4-5.1c-0.6-1.1-1.5-1.7-2.8-1.7h-0.4v-1.8h1.6
		c1.5,0,2.6,0.6,3.2,1.8c0.7,1.5,1.3,3.9,1.9,7.2c0.8-3.7,2.2-6.7,4.2-9l2.9-0.6c0.7,1.6,1.3,4,1.8,7.3l0.4,2.7
		c0.1,0.9,0.2,1.6,0.3,2c0.2,1.6,0.4,2.8,0.7,3.6c1.4-2.7,3.4-4.1,5.9-4.1c1.5,0,2.8,0.5,3.8,1.6c1.1,1,1.6,2.3,1.6,3.8
		c0,1.6-0.5,2.9-1.6,4c-1.1,1.1-2.4,1.7-3.9,1.7c-2.1,0-3.9-0.8-5.5-2.4c-1.1,2.9-2.1,4.8-3,5.6s-2.3,1.2-4.2,1.2h-2v-1.8h0.9
		c1.9,0,3.2-0.4,3.9-1.1c0.7-0.8,1.6-2.7,2.7-6c-0.5-0.9-0.8-1.6-1-2.2c-0.2-0.6-0.4-1.8-0.6-3.8l-0.6-4.2c-0.4-2.8-0.8-4.7-1.3-5.7
		c-1.2,1.5-2.3,3.5-3.2,6c-0.9,2.5-1.4,4.8-1.4,6.8v1.2H3144.3z M3156.6,4449.2c1.6,1.8,3.2,2.6,4.8,2.6c1.1,0,2-0.4,2.7-1.1
		c0.7-0.8,1.1-1.7,1.1-2.9c0-1-0.4-1.9-1.1-2.6c-0.7-0.7-1.5-1.1-2.5-1.1C3159.6,4444.2,3157.9,4445.9,3156.6,4449.2z"/>
</g>
</svg>
