<?xml version="1.0" encoding="utf-8"?>
<!-- Generator: Adobe Illustrator 21.1.0, SVG Export Plug-In . SVG Version: 6.00 Build 0)  -->
<svg version="1.1" id="Layer_1" xmlns="http://www.w3.org/2000/svg" xmlns:xlink="http://www.w3.org/1999/xlink" x="0px" y="0px"
	 viewBox="0 0 1852.2 671.1" style="enable-background:new 0 0 1852.2 671.1;" xml:space="preserve">
<style type="text/css">
	.st0{fill:#DCECE7;stroke:#000000;stroke-miterlimit:10;}
	.st1{fill:#98D9EC;stroke:#000000;stroke-miterlimit:10;}
	.st2{fill:#FFF9AD;stroke:#000000;stroke-miterlimit:10;}
	.st3{fill:#1B75BC;stroke:#000000;stroke-miterlimit:10;}
	.st4{fill:#74C0EB;stroke:#000000;stroke-miterlimit:10;}
	.st5{fill:#6DCFF6;stroke:#000000;stroke-miterlimit:10;}
	.st6{fill:#FFF799;stroke:#000000;stroke-miterlimit:10;}
	.st7{fill:#F49AC1;stroke:#000000;stroke-miterlimit:10;}
	.st8{fill:#A698C9;stroke:#000000;stroke-miterlimit:10;}
</style>
<g>
	<path class="st0" d="M197.6,398.8l10.9-69H255l-28.3,178.8h-46.5l11.6-73.3h-67.1l-11.6,73.3H66.6l28.3-178.8h46.5l-10.9,69H197.6z
		"/>
	<path class="st0" d="M460.5,415.9c-9.2,57.9-57.1,98.7-114.5,98.7c-57.4,0-92.4-40.8-83.3-98.7c8.6-54.1,62-92,113.5-92
		S469,361.8,460.5,415.9z M311,416.1c-4.9,30.8,14.3,53.4,42.1,53.4c27.7,0,54.1-22.5,59-53.4c3.9-24.7-15.3-47.2-43-47.2
		C341.3,368.9,314.9,391.4,311,416.1z"/>
	<path class="st0" d="M616,508.6h-57.9l-33-68.8h-0.5l-10.9,68.8h-46.5l28.3-178.8h69.5c35.3,0,59.5,16.8,53.4,55
		c-3.9,24.7-21,46-47.1,50.5L616,508.6z M529.5,409.9h4.5c15.2,0,32.7-2.8,35.8-22.3c3.1-19.4-13.5-22.3-28.7-22.3h-4.5L529.5,409.9
		z"/>
	<path class="st0" d="M832.1,415.9c-9.2,57.9-57.1,98.7-114.5,98.7s-92.4-40.8-83.3-98.7c8.6-54.1,62-92,113.5-92
		S840.6,361.8,832.1,415.9z M682.6,416.1c-4.9,30.8,14.3,53.4,42.1,53.4s54.1-22.5,59-53.4c3.9-24.7-15.3-47.2-43-47.2
		S686.5,391.4,682.6,416.1z"/>
	<path class="st0" d="M958.2,375.8c-7.4-7.1-17.6-11.9-29-11.9c-8.5,0-20.7,5-22.3,14.9c-1.7,10.4,10.3,14.5,17.9,17.1l11.3,3.6
		c23.7,7.4,41,19.9,36.4,48.9c-2.8,17.8-10,36-26.1,48.1c-15.9,11.9-35.4,16.8-53.4,16.8c-22.5,0-43.4-7.6-59.6-20.4l25.9-37.5
		c10,10.2,22.4,18.5,38.3,18.5c10.9,0,23.4-5.5,25.4-18c2.1-13-15.5-17.5-25-20.4c-27.9-8.3-45.9-15.9-40.4-50.5
		c5.7-36.3,35.4-60,71.2-60c18,0,39.2,5.7,53.6,14.7L958.2,375.8z"/>
	<path class="st0" d="M1131.7,389.8c-7.5-12.8-21.8-19.7-37.7-19.7c-28.5,0-51.1,21.8-55.5,49.6c-4.5,28.2,11.7,48.6,40.7,48.6
		c15.2,0,31.5-7.4,43.1-19l-8.8,55.7c-16.2,4.7-27.9,8.3-42.3,8.3c-24.9,0-47.1-9.5-62.9-26.3c-16.9-17.8-22.2-41-18-67.6
		c3.9-24.4,16.8-47.9,36.7-65.5c20.4-18,47.5-28.9,72.6-28.9c14.9,0,28.2,3.3,41,9L1131.7,389.8z"/>
	<path class="st0" d="M1345,415.9c-9.2,57.9-57.1,98.7-114.5,98.7s-92.4-40.8-83.3-98.7c8.6-54.1,62-92,113.5-92
		S1353.6,361.8,1345,415.9z M1195.6,416.1c-4.9,30.8,14.3,53.4,42.1,53.4s54.1-22.5,59-53.4c3.9-24.7-15.3-47.2-43-47.2
		S1199.5,391.4,1195.6,416.1z"/>
	<path class="st0" d="M1380.2,329.8h71.1c38.4,0,62.2,17.8,55.7,58.8c-6.7,42.2-32.4,60.7-72.9,60.7h-26.3l-9.4,59.3h-46.5
		L1380.2,329.8z M1413.7,411.8h7.8c16.8,0,33.4,0,36.9-21.8c3.6-22.5-11.8-22.8-29.8-22.8h-7.8L1413.7,411.8z"/>
	<path class="st0" d="M1577.2,369.1l-4.7,29.9h52.4l-6.2,39.4h-52.4l-4.9,30.8h55.3l-6.2,39.4h-101.7l28.3-178.8h101.7l-6.2,39.4
		H1577.2z"/>
	<path class="st0" d="M1758.3,375.8c-7.4-7.1-17.6-11.9-29-11.9c-8.5,0-20.7,5-22.3,14.9c-1.7,10.4,10.3,14.5,17.9,17.1l11.3,3.6
		c23.7,7.4,41,19.9,36.4,48.9c-2.8,17.8-10,36-26.1,48.1c-15.9,11.9-35.4,16.8-53.4,16.8c-22.5,0-43.4-7.6-59.6-20.4l25.9-37.5
		c10,10.2,22.4,18.5,38.3,18.5c10.9,0,23.4-5.5,25.4-18c2.1-13-15.5-17.5-25-20.4c-27.9-8.3-45.9-15.9-40.4-50.5
		c5.7-36.3,35.4-60,71.2-60c18,0,39.2,5.7,53.6,14.7L1758.3,375.8z"/>
</g>
<g>
	<path class="st1" d="M207.8,409l10.9-69h46.5l-28.3,178.8h-46.5l11.6-73.3h-67.1l-11.6,73.3H76.8L105.1,340h46.5l-10.9,69H207.8z"
		/>
	<path class="st1" d="M470.7,426.1c-9.2,57.9-57.1,98.7-114.5,98.7c-57.4,0-92.4-40.8-83.3-98.7c8.6-54.1,62-92,113.5-92
		S479.2,372,470.7,426.1z M321.2,426.3c-4.9,30.8,14.3,53.4,42.1,53.4c27.7,0,54.1-22.5,59-53.4c3.9-24.7-15.3-47.2-43-47.2
		C351.5,379.1,325.1,401.6,321.2,426.3z"/>
	<path class="st1" d="M626.3,518.8h-57.9l-33-68.8h-0.5L524,518.8h-46.5L505.9,340h69.5c35.3,0,59.5,16.8,53.4,55
		c-3.9,24.7-21,46-47.1,50.5L626.3,518.8z M539.7,420.1h4.5c15.2,0,32.7-2.8,35.8-22.3c3.1-19.4-13.5-22.3-28.7-22.3h-4.5
		L539.7,420.1z"/>
	<path class="st1" d="M842.3,426.1c-9.2,57.9-57.1,98.7-114.5,98.7s-92.4-40.8-83.3-98.7c8.6-54.1,62-92,113.5-92
		S850.8,372,842.3,426.1z M692.8,426.3c-4.9,30.8,14.3,53.4,42.1,53.4s54.1-22.5,59-53.4c3.9-24.7-15.3-47.2-43-47.2
		S696.7,401.6,692.8,426.3z"/>
	<path class="st1" d="M968.4,386c-7.4-7.1-17.6-11.9-29-11.9c-8.5,0-20.7,5-22.3,14.9c-1.7,10.4,10.3,14.5,17.9,17.1l11.3,3.6
		c23.7,7.4,41,19.9,36.4,48.9c-2.8,17.8-10,36-26.1,48.1c-15.9,11.9-35.4,16.8-53.4,16.8c-22.5,0-43.4-7.6-59.6-20.4l25.9-37.5
		c10,10.2,22.4,18.5,38.3,18.5c10.9,0,23.4-5.5,25.4-18c2.1-13-15.5-17.5-25-20.4c-27.9-8.3-45.9-15.9-40.4-50.5
		c5.7-36.3,35.4-60,71.2-60c18,0,39.2,5.7,53.6,14.7L968.4,386z"/>
	<path class="st1" d="M1141.9,400c-7.5-12.8-21.8-19.7-37.7-19.7c-28.5,0-51.1,21.8-55.5,49.6c-4.5,28.2,11.7,48.6,40.7,48.6
		c15.2,0,31.5-7.4,43.1-19l-8.8,55.7c-16.2,4.7-27.9,8.3-42.3,8.3c-24.9,0-47.1-9.5-62.9-26.3c-16.9-17.8-22.2-41-18-67.6
		c3.9-24.4,16.8-47.9,36.7-65.5c20.4-18,47.5-28.9,72.6-28.9c14.9,0,28.2,3.3,41,9L1141.9,400z"/>
	<path class="st1" d="M1355.2,426.1c-9.2,57.9-57.1,98.7-114.5,98.7s-92.4-40.8-83.3-98.7c8.6-54.1,62-92,113.5-92
		S1363.8,372,1355.2,426.1z M1205.8,426.3c-4.9,30.8,14.3,53.4,42.1,53.4s54.1-22.5,59-53.4c3.9-24.7-15.3-47.2-43-47.2
		S1209.7,401.6,1205.8,426.3z"/>
	<path class="st1" d="M1390.4,340h71.1c38.4,0,62.2,17.8,55.7,58.8c-6.7,42.2-32.4,60.7-72.9,60.7H1418l-9.4,59.3h-46.5L1390.4,340z
		 M1423.9,422h7.8c16.8,0,33.4,0,36.9-21.8c3.6-22.5-11.8-22.8-29.8-22.8h-7.8L1423.9,422z"/>
	<path class="st1" d="M1587.4,379.4l-4.7,29.9h52.4l-6.2,39.4h-52.4l-4.9,30.8h55.3l-6.2,39.4h-101.7l28.3-178.8h101.7l-6.2,39.4
		H1587.4z"/>
	<path class="st1" d="M1768.5,386c-7.4-7.1-17.6-11.9-29-11.9c-8.5,0-20.7,5-22.3,14.9c-1.7,10.4,10.3,14.5,17.9,17.1l11.3,3.6
		c23.7,7.4,41,19.9,36.4,48.9c-2.8,17.8-10,36-26.1,48.1c-15.9,11.9-35.4,16.8-53.4,16.8c-22.5,0-43.4-7.6-59.6-20.4l25.9-37.5
		c10,10.2,22.4,18.5,38.3,18.5c10.9,0,23.4-5.5,25.4-18c2.1-13-15.5-17.5-25-20.4c-27.9-8.3-45.9-15.9-40.4-50.5
		c5.7-36.3,35.4-60,71.2-60c18,0,39.2,5.7,53.6,14.7L1768.5,386z"/>
</g>
<g>
	<path class="st2" d="M219,420.3l10.9-69h46.5l-28.3,178.8h-46.5l11.6-73.3h-67.1l-11.6,73.3H88l28.3-178.8h46.5l-10.9,69H219z"/>
	<path class="st2" d="M481.9,437.3c-9.2,57.9-57.1,98.7-114.5,98.7s-92.4-40.8-83.3-98.7c8.6-54.1,62-92,113.5-92
		S490.5,383.3,481.9,437.3z M332.5,437.6c-4.9,30.8,14.3,53.4,42.1,53.4c27.7,0,54.1-22.5,59-53.4c3.9-24.7-15.3-47.2-43-47.2
		C362.7,390.4,336.4,412.9,332.5,437.6z"/>
	<path class="st2" d="M637.5,530.1h-57.9l-33-68.8h-0.5l-10.9,68.8h-46.5l28.3-178.8h69.5c35.3,0,59.5,16.8,53.4,55
		c-3.9,24.7-21,46-47.1,50.5L637.5,530.1z M550.9,431.4h4.5c15.2,0,32.7-2.8,35.8-22.3c3.1-19.4-13.5-22.3-28.7-22.3H558
		L550.9,431.4z"/>
	<path class="st2" d="M853.5,437.3C844.4,495.2,796.4,536,739,536s-92.4-40.8-83.3-98.7c8.6-54.1,62-92,113.5-92
		S862.1,383.3,853.5,437.3z M704.1,437.6c-4.9,30.8,14.3,53.4,42.1,53.4s54.1-22.5,59-53.4c3.9-24.7-15.3-47.2-43-47.2
		S708,412.9,704.1,437.6z"/>
	<path class="st2" d="M979.6,397.3c-7.4-7.1-17.6-11.9-29-11.9c-8.5,0-20.7,5-22.3,14.9c-1.7,10.4,10.3,14.5,17.9,17.1l11.3,3.6
		c23.7,7.4,41,19.9,36.4,48.9c-2.8,17.8-10,36-26.1,48.1c-15.9,11.9-35.4,16.8-53.4,16.8c-22.5,0-43.4-7.6-59.6-20.4l25.9-37.5
		c10,10.2,22.4,18.5,38.3,18.5c10.9,0,23.4-5.5,25.4-18c2.1-13-15.5-17.5-25-20.4c-27.9-8.3-45.9-15.9-40.4-50.5
		c5.7-36.3,35.4-60,71.2-60c18,0,39.2,5.7,53.6,14.7L979.6,397.3z"/>
	<path class="st2" d="M1153.2,411.2c-7.5-12.8-21.8-19.7-37.7-19.7c-28.5,0-51.1,21.8-55.5,49.6c-4.5,28.2,11.7,48.6,40.7,48.6
		c15.2,0,31.5-7.4,43.1-19l-8.8,55.7c-16.2,4.7-27.9,8.3-42.3,8.3c-24.9,0-47.1-9.5-62.9-26.3c-16.9-17.8-22.2-41-18-67.6
		c3.9-24.4,16.8-47.9,36.7-65.5c20.4-18,47.5-28.9,72.6-28.9c14.9,0,28.2,3.3,41,9L1153.2,411.2z"/>
	<path class="st2" d="M1366.5,437.3c-9.2,57.9-57.1,98.7-114.5,98.7s-92.4-40.8-83.3-98.7c8.6-54.1,62-92,113.5-92
		S1375,383.3,1366.5,437.3z M1217,437.6c-4.9,30.8,14.3,53.4,42.1,53.4s54.1-22.5,59-53.4c3.9-24.7-15.3-47.2-43-47.2
		S1220.9,412.9,1217,437.6z"/>
	<path class="st2" d="M1401.7,351.2h71.1c38.4,0,62.2,17.8,55.7,58.8c-6.7,42.2-32.4,60.7-72.9,60.7h-26.3l-9.4,59.3h-46.5
		L1401.7,351.2z M1435.2,433.3h7.8c16.8,0,33.4,0,36.9-21.8c3.6-22.5-11.8-22.8-29.8-22.8h-7.8L1435.2,433.3z"/>
	<path class="st2" d="M1598.7,390.6l-4.7,29.9h52.4l-6.2,39.4h-52.4l-4.9,30.8h55.3l-6.2,39.4h-101.7l28.3-178.8h101.7l-6.2,39.4
		H1598.7z"/>
	<path class="st2" d="M1779.8,397.3c-7.4-7.1-17.6-11.9-29-11.9c-8.5,0-20.7,5-22.3,14.9c-1.7,10.4,10.3,14.5,17.9,17.1l11.3,3.6
		c23.7,7.4,41,19.9,36.4,48.9c-2.8,17.8-10,36-26.1,48.1c-15.9,11.9-35.4,16.8-53.4,16.8c-22.5,0-43.4-7.6-59.6-20.4l25.9-37.5
		c10,10.2,22.4,18.5,38.3,18.5c10.9,0,23.4-5.5,25.4-18c2.1-13-15.5-17.5-25-20.4c-27.9-8.3-45.9-15.9-40.4-50.5
		c5.7-36.3,35.4-60,71.2-60c18,0,39.2,5.7,53.6,14.7L1779.8,397.3z"/>
</g>
<g>
	<path class="st3" d="M231.1,145.8l11.5-72.4h48.8L261.6,261h-48.8l12.2-76.9h-70.4L142.4,261H93.6l29.7-187.6h48.8l-11.5,72.4
		H231.1z"/>
	<path class="st3" d="M365.4,114.7l-5,31.4h55l-6.5,41.3h-55l-5.1,32.3h58l-6.5,41.3H293.4l29.7-187.6h106.7l-6.5,41.3H365.4z"/>
	<path class="st3" d="M485.6,219.7H544l-6.5,41.3H430.3L460,73.4h48.8L485.6,219.7z"/>
	<path class="st3" d="M608.7,219.7h58.5l-6.5,41.3H553.4l29.7-187.6h48.8L608.7,219.7z"/>
	<path class="st3" d="M729.5,228.4L711.4,261h-51.8L761.5,73.4h53.2L855.7,261h-52l-7-32.6H729.5z M779,131.4h-0.5l-29.6,59.7h40.6
		L779,131.4z"/>
</g>
<g>
	<path class="st4" d="M240.7,155.5l11.5-72.4H301l-29.7,187.6h-48.8l12.2-76.9h-70.4l-12.2,76.9h-48.8L133,83.1h48.8l-11.5,72.4
		H240.7z"/>
	<path class="st4" d="M375,124.4l-5,31.4h55l-6.5,41.3h-55l-5.1,32.3h58l-6.5,41.3H303.1l29.7-187.6h106.7l-6.5,41.3H375z"/>
	<path class="st4" d="M495.2,229.4h58.5l-6.5,41.3H439.9l29.7-187.6h48.8L495.2,229.4z"/>
	<path class="st4" d="M618.4,229.4h58.5l-6.5,41.3H563.1l29.7-187.6h48.8L618.4,229.4z"/>
	<path class="st4" d="M739.2,238.1l-18.1,32.6h-51.8L771.2,83.1h53.2l40.9,187.6h-52l-7-32.6H739.2z M788.6,141.1h-0.5l-29.6,59.7
		h40.6L788.6,141.1z"/>
</g>
<g>
	<path class="st5" d="M250.4,165.2l11.5-72.4h48.8l-29.7,187.6h-48.8l12.2-76.9h-70.4l-12.2,76.9H113l29.7-187.6h48.8L180,165.2
		H250.4z"/>
	<path class="st5" d="M384.7,134.1l-5,31.4h55l-6.5,41.3h-55l-5.1,32.3h58l-6.5,41.3H312.8l29.7-187.6h106.7l-6.5,41.3H384.7z"/>
	<path class="st5" d="M504.9,239.1h58.5l-6.5,41.3H449.6l29.7-187.6h48.8L504.9,239.1z"/>
	<path class="st5" d="M628.1,239.1h58.5l-6.5,41.3H572.8l29.7-187.6h48.8L628.1,239.1z"/>
	<path class="st5" d="M748.9,247.8l-18.1,32.6H679L780.9,92.8h53.2l40.9,187.6h-52l-7-32.6H748.9z M798.3,150.8h-0.5l-29.6,59.7
		h40.6L798.3,150.8z"/>
</g>
<g>
	<path class="st6" d="M260.1,174.9l11.5-72.4h48.8l-29.7,187.6h-48.8l12.2-76.9h-70.4l-12.2,76.9h-48.8l29.7-187.6h48.8l-11.5,72.4
		H260.1z"/>
	<path class="st6" d="M394.4,143.8l-5,31.4h55l-6.5,41.3h-55l-5.1,32.3h58l-6.5,41.3H322.5l29.7-187.6h106.7l-6.5,41.3H394.4z"/>
	<path class="st6" d="M514.6,248.8h58.5l-6.5,41.3H459.3L489,102.5h48.8L514.6,248.8z"/>
	<path class="st6" d="M637.8,248.8h58.5l-6.5,41.3H582.5l29.7-187.6h48.8L637.8,248.8z"/>
	<path class="st6" d="M758.6,257.5l-18.1,32.6h-51.8l101.9-187.6h53.2l40.9,187.6h-52l-7-32.6H758.6z M808,160.5h-0.5l-29.6,59.7
		h40.6L808,160.5z"/>
</g>
<g>
	<path class="st7" d="M270.1,183.3l11.5-72.4h48.8l-29.7,187.6h-48.8l12.2-76.9h-70.4l-12.2,76.9h-48.8l29.7-187.6h48.8l-11.5,72.4
		H270.1z"/>
	<path class="st7" d="M404.4,152.2l-5,31.4h55l-6.5,41.3h-55l-5.1,32.3h58l-6.5,41.3H332.5l29.7-187.6h106.7l-6.5,41.3H404.4z"/>
	<path class="st7" d="M524.6,257.2h58.5l-6.5,41.3H469.3L499,110.9h48.8L524.6,257.2z"/>
	<path class="st7" d="M647.8,257.2h58.5l-6.5,41.3H592.5l29.7-187.6h48.8L647.8,257.2z"/>
	<path class="st7" d="M768.6,265.9l-18.1,32.6h-51.8l101.9-187.6h53.2l40.9,187.6h-52l-7-32.6H768.6z M818,168.9h-0.5l-29.6,59.7
		h40.6L818,168.9z"/>
</g>
<g>
	<path class="st8" d="M229,430.3l10.9-69h46.5l-28.3,178.8h-46.5l11.6-73.3h-67.1l-11.6,73.3H98l28.3-178.8h46.5l-10.9,69H229z"/>
	<path class="st8" d="M491.9,447.3c-9.2,57.9-57.1,98.7-114.5,98.7s-92.4-40.8-83.3-98.7c8.6-54.1,62-92,113.5-92
		S500.5,393.3,491.9,447.3z M342.5,447.6c-4.9,30.8,14.3,53.4,42.1,53.4c27.7,0,54.1-22.5,59-53.4c3.9-24.7-15.3-47.2-43-47.2
		C372.7,400.4,346.4,422.9,342.5,447.6z"/>
	<path class="st8" d="M647.5,540.1h-57.9l-33-68.8h-0.5l-10.9,68.8h-46.5l28.3-178.8h69.5c35.3,0,59.5,16.8,53.4,55
		c-3.9,24.7-21,46-47.1,50.5L647.5,540.1z M560.9,441.4h4.5c15.2,0,32.7-2.8,35.8-22.3c3.1-19.4-13.5-22.3-28.7-22.3H568
		L560.9,441.4z"/>
	<path class="st8" d="M863.5,447.3C854.4,505.2,806.4,546,749,546s-92.4-40.8-83.3-98.7c8.6-54.1,62-92,113.5-92
		S872.1,393.3,863.5,447.3z M714.1,447.6c-4.9,30.8,14.3,53.4,42.1,53.4s54.1-22.5,59-53.4c3.9-24.7-15.3-47.2-43-47.2
		S718,422.9,714.1,447.6z"/>
	<path class="st8" d="M989.6,407.3c-7.4-7.1-17.6-11.9-29-11.9c-8.5,0-20.7,5-22.3,14.9c-1.7,10.4,10.3,14.5,17.9,17.1l11.3,3.6
		c23.7,7.4,41,19.9,36.4,48.9c-2.8,17.8-10,36-26.1,48.1c-15.9,11.9-35.4,16.8-53.4,16.8c-22.5,0-43.4-7.6-59.6-20.4l25.9-37.5
		c10,10.2,22.4,18.5,38.3,18.5c10.9,0,23.4-5.5,25.4-18c2.1-13-15.5-17.5-25-20.4c-27.9-8.3-45.9-15.9-40.4-50.5
		c5.7-36.3,35.4-60,71.2-60c18,0,39.2,5.7,53.6,14.7L989.6,407.3z"/>
	<path class="st8" d="M1163.2,421.2c-7.5-12.8-21.8-19.7-37.7-19.7c-28.5,0-51.1,21.8-55.5,49.6c-4.5,28.2,11.7,48.6,40.7,48.6
		c15.2,0,31.5-7.4,43.1-19l-8.8,55.7c-16.2,4.7-27.9,8.3-42.3,8.3c-24.9,0-47.1-9.5-62.9-26.3c-16.9-17.8-22.2-41-18-67.6
		c3.9-24.4,16.8-47.9,36.7-65.5c20.4-18,47.5-28.9,72.6-28.9c14.9,0,28.2,3.3,41,9L1163.2,421.2z"/>
	<path class="st8" d="M1376.5,447.3c-9.2,57.9-57.1,98.7-114.5,98.7s-92.4-40.8-83.3-98.7c8.6-54.1,62-92,113.5-92
		S1385.1,393.3,1376.5,447.3z M1227,447.6c-4.9,30.8,14.3,53.4,42.1,53.4s54.1-22.5,59-53.4c3.9-24.7-15.3-47.2-43-47.2
		S1231,422.9,1227,447.6z"/>
	<path class="st8" d="M1411.7,361.2h71.1c38.4,0,62.2,17.8,55.7,58.8c-6.7,42.2-32.4,60.7-72.9,60.7h-26.3l-9.4,59.3h-46.5
		L1411.7,361.2z M1445.2,443.3h7.8c16.8,0,33.4,0,36.9-21.8c3.6-22.5-11.8-22.8-29.8-22.8h-7.8L1445.2,443.3z"/>
	<path class="st8" d="M1608.7,400.6l-4.7,29.9h52.4l-6.2,39.4h-52.4l-4.9,30.8h55.3l-6.2,39.4h-101.7l28.3-178.8h101.7l-6.2,39.4
		H1608.7z"/>
	<path class="st8" d="M1789.8,407.3c-7.4-7.1-17.6-11.9-29-11.9c-8.5,0-20.7,5-22.3,14.9c-1.7,10.4,10.3,14.5,17.9,17.1l11.3,3.6
		c23.7,7.4,41,19.9,36.4,48.9c-2.8,17.8-10,36-26.1,48.1c-15.9,11.9-35.4,16.8-53.4,16.8c-22.5,0-43.4-7.6-59.6-20.4l25.9-37.5
		c10,10.2,22.4,18.5,38.3,18.5c10.9,0,23.4-5.5,25.4-18c2.1-13-15.5-17.5-25-20.4c-27.9-8.3-45.9-15.9-40.4-50.5
		c5.7-36.3,35.4-60,71.2-60c18,0,39.2,5.7,53.6,14.7L1789.8,407.3z"/>
</g>
</svg>
