<?xml version="1.0" encoding="utf-8"?>
<!-- Generator: Adobe Illustrator 21.1.0, SVG Export Plug-In . SVG Version: 6.00 Build 0)  -->
<svg version="1.1"
	 id="svg602" sodipodi:docname="D:\Dokumenty\Wikipedie\images\svg\Astro\aries.svg" sodipodi:version="0.34" xmlns:odm="http://product.corel.com/CGS/11/cddns/" xmlns:sodipodi="http://sodipodi.sourceforge.net/DTD/sodipodi-0.dtd"
	 xmlns="http://www.w3.org/2000/svg" xmlns:xlink="http://www.w3.org/1999/xlink" x="0px" y="0px" viewBox="0 0 134.6 127.8"
	 style="enable-background:new 0 0 134.6 127.8;" xml:space="preserve">
<sodipodi:namedview  id="base"></sodipodi:namedview>
<g id="Layer_1" transform="matrix(4.260087,0,0,4.260933,-12024.51,-18381.66)">
	<path id="path636" d="M2849.8,4341.6c-1.7,1.6-3.4,2.4-4.9,2.4c-1.4,0-2.5-0.4-3.4-1.4c-0.9-0.9-1.4-2-1.4-3.3
		c0-1.8,0.9-4.6,2.8-8.6l1.4-3c1.1-2.3,1.6-4.2,1.6-5.7c0-1.9-0.5-3.3-1.6-4.5c-1.1-1.1-2.5-1.7-4.3-1.7c-1.7,0-3,0.5-4.1,1.5
		c-1,1-1.5,2.3-1.5,4c0,1.5,0.5,3.3,1.4,5.3l0.6,1.2c1,2,1.4,3.4,1.4,4.4c0,1.5-0.6,2.8-1.7,3.9c-1.1,1.1-2.5,1.7-4,1.7
		c-1.6,0-3-0.6-4.1-1.7c-1.1-1.1-1.7-2.5-1.7-4.1c0-1.6,0.5-2.9,1.7-4c1.1-1.1,2.4-1.7,4-1.7c0.6,0,1.2,0.1,1.8,0.3
		c-1.1-2-1.6-3.8-1.6-5.4c0-2,0.7-3.7,2.2-5.1c1.5-1.4,3.3-2,5.6-2c2.4,0,4.4,0.7,5.9,2.2c1.5,1.4,2.2,3.4,2.2,5.7
		c0,1.2-0.1,2.2-0.4,3.1c-0.2,0.9-0.8,2.3-1.7,4.3l-1,2.2c-1.8,3.9-2.7,6.5-2.7,7.6c0,0.9,0.3,1.6,0.8,2.1c0.5,0.6,1.2,0.8,1.9,0.8
		c1,0,2.2-0.6,3.6-1.8L2849.8,4341.6z M2828,4332c0,1.2,0.4,2.1,1.2,2.9c0.8,0.8,1.7,1.2,2.9,1.2c1.1,0,2.1-0.4,2.8-1.2
		c0.8-0.8,1.2-1.8,1.2-2.9c0-1.2-0.4-2.1-1.2-2.9c-0.8-0.8-1.7-1.2-2.9-1.2c-1.1,0-2.1,0.4-2.8,1.2
		C2828.4,4329.9,2828,4330.9,2828,4332z"/>
</g>
</svg>
