<?xml version="1.0" encoding="utf-8"?>
<!-- Generator: Adobe Illustrator 21.1.0, SVG Export Plug-In . SVG Version: 6.00 Build 0)  -->
<svg version="1.1"
	 id="svg602" sodipodi:docname="D:\Dokumenty\Wikipedie\images\svg\Astro\aries.svg" sodipodi:version="0.34" xmlns:odm="http://product.corel.com/CGS/11/cddns/" xmlns:sodipodi="http://sodipodi.sourceforge.net/DTD/sodipodi-0.dtd"
	 xmlns="http://www.w3.org/2000/svg" xmlns:xlink="http://www.w3.org/1999/xlink" x="0px" y="0px" viewBox="0 0 134.6 127.8"
	 style="enable-background:new 0 0 134.6 127.8;" xml:space="preserve">
<sodipodi:namedview  id="base"></sodipodi:namedview>
<g id="Layer_1" transform="matrix(6.484284,0,0,6.473976,-20499.79,-29016.36)">
	<path id="path648" d="M3161.5,4500.6v-1.9h20.8v1.9H3161.5z M3169.7,4493.1v1.8h-8.2v-1.9h5.8c-1-1.1-1.6-2.3-1.6-3.6
		c0-1.7,0.6-3.1,1.8-4.3c1.2-1.2,2.7-1.8,4.4-1.8c1.7,0,3.1,0.6,4.4,1.8c1.2,1.2,1.8,2.6,1.8,4.3c0,1.3-0.5,2.5-1.6,3.6h5.7v1.9
		h-8.2v-1.8c1.4-0.9,2.1-2.1,2.1-3.6c0-1.2-0.4-2.1-1.3-3c-0.8-0.8-1.8-1.3-3-1.3c-1.2,0-2.2,0.4-3,1.3c-0.8,0.8-1.3,1.8-1.3,3
		C3167.6,4490.9,3168.3,4492.2,3169.7,4493.1z"/>
</g>
</svg>
