<?xml version="1.0" encoding="utf-8"?>
<!-- Generator: Adobe Illustrator 21.1.0, SVG Export Plug-In . SVG Version: 6.00 Build 0)  -->
<svg version="1.1"
	 id="svg602" sodipodi:docname="D:\Dokumenty\Wikipedie\images\svg\Astro\aries.svg" sodipodi:version="0.34" xmlns:odm="http://product.corel.com/CGS/11/cddns/" xmlns:sodipodi="http://sodipodi.sourceforge.net/DTD/sodipodi-0.dtd"
	 xmlns="http://www.w3.org/2000/svg" xmlns:xlink="http://www.w3.org/1999/xlink" x="0px" y="0px" viewBox="0 0 134.6 127.8"
	 style="enable-background:new 0 0 134.6 127.8;" xml:space="preserve">
<sodipodi:namedview  id="base"></sodipodi:namedview>
<g id="Base" transform="matrix(5.548888,0,0,5.549122,-15669.98,-24593.71)">
	<path id="path678" d="M2833.9,4443.8c0,1.8-0.4,3.7-1.3,5.7c-0.8,2-2,3.8-3.4,5.4h-2.4c3.2-3.4,4.8-7.1,4.8-11.1h-4.7v-1.6h4.7
		c-0.2-3.5-1.8-6.9-4.8-10.2h2.3c2.8,3,4.4,6.4,4.7,10.2h4.5c0.4-3.9,2-7.3,4.7-10.2h2.3c-3,3.3-4.6,6.7-4.8,10.2h4.7v1.6h-4.7
		c0,4,1.6,7.7,4.8,11.1h-2.4c-1.4-1.6-2.5-3.4-3.4-5.4c-0.8-2-1.3-3.9-1.3-5.7H2833.9z"/>
</g>
</svg>
