<?xml version="1.0" encoding="utf-8"?>
<!-- Generator: Adobe Illustrator 21.1.0, SVG Export Plug-In . SVG Version: 6.00 Build 0)  -->
<svg version="1.1"
	 id="svg602" sodipodi:docname="D:\Dokumenty\Wikipedie\images\svg\Astro\aries.svg" sodipodi:version="0.34" xmlns:odm="http://product.corel.com/CGS/11/cddns/" xmlns:sodipodi="http://sodipodi.sourceforge.net/DTD/sodipodi-0.dtd"
	 xmlns="http://www.w3.org/2000/svg" xmlns:xlink="http://www.w3.org/1999/xlink" x="0px" y="0px" viewBox="0 0 134.6 127.8"
	 style="enable-background:new 0 0 134.6 127.8;" xml:space="preserve">
<sodipodi:namedview  id="base"></sodipodi:namedview>
<g id="Layer_1" transform="matrix(4.472138,0,0,4.481411,-13347.59,-19910.91)">
	<path id="path654" d="M2988.5,4465.4v-15.7c0-2.6-0.6-4.7-1.8-6.3h2.4c0.8,1.3,1.4,2.7,1.7,4.3c0.7-1.7,1.6-3.2,2.6-4.3l2.1-0.4
		c1,1.2,1.6,2.8,1.9,5c0.5-1.5,1.4-3.1,2.6-4.5l2.2-0.4c1.2,1.6,1.8,3.5,1.8,5.7v13.7c0,1.4,0.1,2.4,0.1,2.9c0.1,0.5,0.3,1,0.7,1.3
		c0.6,0.7,1.7,1,3.1,1h1.3v-2.2l3.5,3.1l-3.5,3v-2.1h-2c-1.9,0-3.3-0.5-4.2-1.5c-0.9-1-1.3-2.6-1.3-4.8v-13.2c0-2.2-0.3-3.8-1-4.8
		c-1.6,1.9-2.8,4.3-3.4,7.1v13.2h-2.2v-14.8c0-2.7-0.3-4.5-1-5.6c-1.6,1.8-2.7,4-3.4,6.6v13.7H2988.5z"/>
</g>
</svg>
