<?xml version="1.0" encoding="utf-8"?>
<!-- Generator: Adobe Illustrator 21.1.0, SVG Export Plug-In . SVG Version: 6.00 Build 0)  -->
<svg version="1.1"
	 id="svg602" sodipodi:docname="D:\Dokumenty\Wikipedie\images\svg\Astro\aries.svg" sodipodi:version="0.34" xmlns:odm="http://product.corel.com/CGS/11/cddns/" xmlns:sodipodi="http://sodipodi.sourceforge.net/DTD/sodipodi-0.dtd"
	 xmlns="http://www.w3.org/2000/svg" xmlns:xlink="http://www.w3.org/1999/xlink" x="0px" y="0px" viewBox="0 0 134.6 127.8"
	 style="enable-background:new 0 0 134.6 127.8;" xml:space="preserve">
<sodipodi:namedview  id="base"></sodipodi:namedview>
<g id="Layer_1" transform="matrix(4.552447,0,0,4.540583,-8401.163,-13199.48)">
	<path id="path618" d="M1856,2917.4c-1-0.4-1.7-0.9-2.4-1.5c-0.6-0.6-1.3-1.5-2-2.9l-0.9-1.6c-1.1-1.9-2.3-2.9-3.7-2.9h-0.4v-1.6
		h1.1c1.9,0,3.7,1.4,5.2,4.1l1.2,2.1c0.8,1.4,1.6,2.3,2.5,2.9c0.9,0.6,2,0.8,3.4,0.8s2.5-0.3,3.4-0.8c0.9-0.5,1.7-1.5,2.5-2.9
		l1.2-2.1c1.6-2.7,3.3-4.1,5.2-4.1h1.1v1.6h-0.4c-1.4,0-2.6,1-3.7,2.9l-0.9,1.6c-0.7,1.3-1.4,2.3-2,2.9c-0.6,0.6-1.4,1.1-2.4,1.5
		c1.7,0.9,3,2.1,3.9,3.6c0.9,1.5,1.4,3.1,1.4,4.8c0,2.5-0.9,4.7-2.8,6.6c-1.9,1.9-4.1,2.8-6.6,2.8s-4.7-0.9-6.6-2.8
		c-1.9-1.9-2.8-4-2.8-6.6c0-1.7,0.5-3.3,1.4-4.8C1853.1,2919.6,1854.4,2918.4,1856,2917.4z M1860.2,2933c2,0,3.7-0.7,5.1-2.1
		c1.4-1.4,2.1-3,2.1-5c0-2-0.7-3.7-2.1-5.1c-1.4-1.4-3.1-2.1-5.1-2.1c-2,0-3.7,0.7-5.1,2.1c-1.4,1.4-2.1,3.1-2.1,5.1
		c0,2,0.7,3.6,2.1,5C1856.5,2932.3,1858.2,2933,1860.2,2933z"/>
</g>
</svg>
