<?xml version="1.0" encoding="utf-8"?>
<!-- Generator: Adobe Illustrator 21.1.0, SVG Export Plug-In . SVG Version: 6.00 Build 0)  -->
<svg version="1.1"
	 id="svg602" sodipodi:docname="D:\Dokumenty\Wikipedie\images\svg\Astro\aries.svg" sodipodi:version="0.34" xmlns:odm="http://product.corel.com/CGS/11/cddns/" xmlns:sodipodi="http://sodipodi.sourceforge.net/DTD/sodipodi-0.dtd"
	 xmlns="http://www.w3.org/2000/svg" xmlns:xlink="http://www.w3.org/1999/xlink" x="0px" y="0px" viewBox="0 0 134.6 127.8"
	 style="enable-background:new 0 0 134.6 127.8;" xml:space="preserve">
<sodipodi:namedview  id="base"></sodipodi:namedview>
<g id="Layer_1" transform="matrix(4.538455,0,0,4.531784,-13030.44,-20143.78)">
	<path id="path642" d="M2878.5,4453.7v13.5h-2.2v-15.7c0-2.2-0.6-4.1-1.8-5.9h2.3c0.8,1.1,1.4,2.5,1.7,4.3c0.7-1.8,1.6-3.2,2.5-4.3
		l2.1-0.4c1,1.2,1.6,2.9,1.8,5c0.5-1.6,1.4-3.1,2.6-4.6l2.1-0.4c1.2,1.6,1.8,3.4,1.8,5.4v4.1c0.6-1.6,1.2-2.9,1.8-3.9l1.8-0.7
		c1.5,2.4,2.3,4.9,2.3,7.5c0,2.1-0.5,4-1.4,5.9s-2.3,3.5-4.1,5.1c0.2,1.3,0.9,2.7,2.2,4.3h-2.5c-0.6-0.8-1.2-1.8-1.6-3.1
		c-1.3,0.8-3,1.3-5,1.6v-1.8c1.8-0.4,3.4-0.9,4.5-1.6c-0.2-0.9-0.2-1.9-0.2-2.8v-13.1c0-2.1-0.3-3.8-0.9-4.8c-1.5,1.6-2.7,4-3.4,6.9
		v13h-2.2v-14.4c0-2.7-0.3-4.5-0.9-5.6C2880.3,4449,2879.2,4451.1,2878.5,4453.7z M2891.4,4466.7c1.3-1.3,2.2-2.7,2.8-4.1
		c0.6-1.5,0.9-3,0.9-4.7c0-1.7-0.4-3.4-1.1-5c-1.1,1.3-1.9,3.1-2.6,5.3V4466.7z"/>
</g>
</svg>
